<svg width="128" height="25" viewBox="0 0 128 25" fill="none" xmlns="http://www.w3.org/2000/svg">
<path d="M8.84375 3.10486C8.4375 2.55798 7.56641 2.28454 6.23047 2.28454C4.90234 2.28454 3.98438 2.72986 3.47656 3.62048C3.30469 3.92517 3.21875 4.30017 3.21875 4.74548C3.21875 5.56579 3.58594 6.31579 4.32031 6.99548C4.80469 7.44861 5.47266 7.91345 6.32422 8.39001C7.18359 8.86658 7.90625 9.29236 8.49219 9.66736C10.7031 11.0736 11.8086 12.6127 11.8086 14.2845C11.8086 15.7689 11.2617 16.9135 10.168 17.7181C9.08203 18.5228 7.67188 18.9252 5.9375 18.9252C4.21094 18.9252 2.82422 18.5853 1.77734 17.9056C0.738281 17.2181 0.21875 16.433 0.21875 15.5502C0.21875 14.6595 0.574219 14.058 1.28516 13.7455C1.50391 13.6439 1.74219 13.5931 2 13.5931C2.49219 13.5931 2.89453 13.7572 3.20703 14.0853C3.52734 14.4135 3.6875 14.8275 3.6875 15.3275C3.6875 15.8275 3.46094 16.2533 3.00781 16.6049C3.61719 17.2142 4.625 17.5189 6.03125 17.5189C7.44531 17.5189 8.41406 17.0424 8.9375 16.0892C9.125 15.7611 9.21875 15.3783 9.21875 14.9408C9.21875 14.183 8.82813 13.4799 8.04688 12.8314C7.64063 12.4955 6.95313 12.0619 5.98438 11.5306C5.02344 10.9916 4.26563 10.5424 3.71094 10.183C1.67188 8.87048 0.652344 7.32361 0.652344 5.54236C0.652344 4.15173 1.17578 3.02673 2.22266 2.16736C3.27734 1.30798 4.57813 0.878294 6.125 0.878294C7.67969 0.878294 8.95313 1.21033 9.94531 1.87439C10.9453 2.53845 11.4453 3.34704 11.4453 4.30017C11.4453 4.81579 11.2852 5.24939 10.9648 5.60095C10.6523 5.9447 10.2539 6.11658 9.76953 6.11658C9.02734 6.11658 8.51172 5.79236 8.22266 5.14392C8.13672 4.94861 8.09375 4.74158 8.09375 4.52283C8.09375 3.92126 8.34375 3.44861 8.84375 3.10486ZM22.5664 16.7689C21.5898 18.2064 20.2852 18.9252 18.6523 18.9252C17.4727 18.9252 16.5547 18.5619 15.8984 17.8353C15.2422 17.1088 14.9141 16.0228 14.9141 14.5775V9.71423C14.9141 9.15173 14.8633 8.78455 14.7617 8.61267C14.668 8.4408 14.4063 8.35486 13.9766 8.35486H13.6719V7.06579C14.3906 7.06579 14.9102 7.01111 15.2305 6.90173C15.5586 6.78454 15.793 6.70251 15.9336 6.65564C16.0742 6.60095 16.2461 6.57361 16.4492 6.57361C16.8477 6.57361 17.1133 6.69861 17.2461 6.94861C17.3789 7.19079 17.4453 7.58142 17.4453 8.12048V14.6595C17.4453 15.5189 17.5352 16.1049 17.7148 16.4174C18.0586 17.0189 18.6484 17.3197 19.4844 17.3197C20.0469 17.3197 20.6016 17.097 21.1484 16.6517C21.6953 16.2064 22.082 15.6869 22.3086 15.0931V9.71423C22.293 9.13611 22.2383 8.76501 22.1445 8.60095C22.0508 8.43689 21.7891 8.35486 21.3594 8.35486H20.6914V7.06579C21.4336 7.06579 22.0039 7.01111 22.4023 6.90173C22.8086 6.78454 23.0977 6.70251 23.2695 6.65564C23.4414 6.60095 23.6289 6.57361 23.832 6.57361C24.2305 6.57361 24.4961 6.69079 24.6289 6.92517C24.7695 7.15954 24.8398 7.54236 24.8398 8.07361V15.5736C24.8398 16.3314 24.875 16.8002 24.9453 16.9799C25.0703 17.3236 25.3828 17.4955 25.8828 17.4955C26.1484 17.4955 26.375 17.4525 26.5625 17.3666V18.5033C26.1875 18.7845 25.6758 18.9252 25.0273 18.9252C23.668 18.9252 22.8477 18.2064 22.5664 16.7689ZM35.0938 8.33142C33.8125 8.33142 32.7734 8.72986 31.9766 9.52673V16.1713C31.9766 16.6556 32.0547 16.9603 32.2109 17.0853C32.4844 17.2963 33 17.4017 33.7578 17.4017V18.6908H27.8047V17.4017C28.4766 17.4017 28.8984 17.3353 29.0703 17.2025C29.2422 17.0619 29.3477 16.9135 29.3867 16.7572C29.4258 16.601 29.4453 16.4056 29.4453 16.1713V9.78455C29.4453 9.22205 29.3945 8.85486 29.293 8.68298C29.1992 8.51111 28.9336 8.42517 28.4961 8.42517H27.7813V7.13611C28.5156 7.13611 29.0898 7.08142 29.5039 6.97204C29.9258 6.85486 30.2227 6.77283 30.3945 6.72595C30.5742 6.67126 30.7656 6.64392 30.9688 6.64392C31.3828 6.64392 31.6523 6.76501 31.7773 7.0072C31.9102 7.24158 31.9766 7.62048 31.9766 8.14392C32.8125 7.4408 33.7813 6.96423 34.8828 6.71423C35.25 6.62829 35.6094 6.58533 35.9609 6.58533C38.4922 6.58533 39.7578 8.26111 39.7578 11.6127V16.1478C39.7578 16.6635 39.832 17.0033 39.9805 17.1674C40.1289 17.3236 40.5352 17.4017 41.1992 17.4017V18.6908H35.6563V17.4017C36.3672 17.4017 36.793 17.3314 36.9336 17.1908C37.082 17.0424 37.168 16.89 37.1914 16.7338C37.2148 16.5775 37.2266 16.3822 37.2266 16.1478V11.765C37.2266 10.6791 37.125 9.93298 36.9219 9.52673C36.5234 8.72986 35.9141 8.33142 35.0938 8.33142ZM51.5703 7.48767C52.2656 6.66736 53.168 6.2572 54.2773 6.2572C54.6523 6.2572 54.9805 6.39783 55.2617 6.67908C55.5508 6.95251 55.6953 7.29626 55.6953 7.71033C55.6953 8.11658 55.5703 8.4408 55.3203 8.68298C55.0781 8.91736 54.7852 9.03455 54.4414 9.03455C54.0977 9.03455 53.8047 8.93689 53.5625 8.74158C53.3281 8.54626 53.1992 8.24548 53.1758 7.83923C52.8945 7.94861 52.6367 8.11267 52.4023 8.33142C52.8711 9.01111 53.1055 9.78064 53.1055 10.64C53.1055 11.4916 52.9727 12.1869 52.707 12.726C52.4492 13.2572 52.0938 13.7142 51.6406 14.097C51.1953 14.472 50.6758 14.7611 50.082 14.9642C49.4883 15.1674 48.9531 15.2689 48.4766 15.2689C48.0078 15.2689 47.6523 15.2572 47.4102 15.2338C46.8477 15.3588 46.4688 15.597 46.2734 15.9486C46.2188 16.0345 46.1914 16.1322 46.1914 16.2416C46.1914 16.476 46.4023 16.6439 46.8242 16.7455C47.2461 16.847 47.9492 16.9408 48.9336 17.0267C49.9258 17.1049 50.7422 17.2025 51.3828 17.3197C52.0313 17.4291 52.5898 17.6049 53.0586 17.847C54.0508 18.3705 54.5469 19.2611 54.5469 20.5189C54.5469 21.7767 53.9336 22.7806 52.707 23.5306C51.4805 24.2885 49.9805 24.6674 48.207 24.6674C45.4258 24.6674 43.6875 23.9603 42.9922 22.5463C42.7813 22.1166 42.6758 21.6439 42.6758 21.1283C42.6758 19.8002 43.4844 18.722 45.1016 17.8939C44.5469 17.5658 44.2695 17.058 44.2695 16.3705C44.2695 15.683 44.7031 15.1439 45.5703 14.7533C44.8359 14.472 44.2578 13.972 43.8359 13.2533C43.4141 12.5267 43.2031 11.7885 43.2031 11.0385C43.2031 9.6322 43.707 8.53845 44.7148 7.7572C45.7305 6.96814 46.9219 6.57361 48.2891 6.57361C49.6563 6.57361 50.75 6.87829 51.5703 7.48767ZM48.207 13.9213C49.2383 13.9213 49.9531 13.3744 50.3516 12.2806C50.4922 11.9056 50.5625 11.4408 50.5625 10.8861C50.5625 9.85486 50.3359 9.09314 49.8828 8.60095C49.4297 8.10876 48.8711 7.86267 48.207 7.86267C47.1211 7.86267 46.375 8.41345 45.9688 9.51501C45.8281 9.91345 45.7578 10.3861 45.7578 10.933C45.7578 11.933 46 12.683 46.4844 13.183C46.9766 13.6752 47.5508 13.9213 48.207 13.9213ZM46.3555 18.6322C45.582 19.0463 45.1953 19.7494 45.1953 20.7416C45.1953 21.5619 45.5234 22.1869 46.1797 22.6166C46.8359 23.0463 47.6992 23.2611 48.7695 23.2611C50.4492 23.2611 51.5547 22.8158 52.0859 21.9252C52.2578 21.6517 52.3438 21.3431 52.3438 20.9994C52.3438 19.8666 51.375 19.2103 49.4375 19.0306C48.8281 18.9681 48.2578 18.9135 47.7266 18.8666C47.1953 18.8197 46.7383 18.7416 46.3555 18.6322ZM68.3047 17.1556C68.8438 17.1556 69.1133 16.5814 69.1133 15.433H70.25C70.3047 15.683 70.332 15.9056 70.332 16.101C70.332 16.2885 70.3281 16.4994 70.3203 16.7338C70.3125 16.9681 70.2266 17.2689 70.0625 17.6361C69.6563 18.4955 68.8867 18.9252 67.7539 18.9252C66.6289 18.9252 65.7227 18.2806 65.0352 16.9916C64.8398 16.6244 64.6484 16.2533 64.4609 15.8783C63.9531 14.847 63.5313 14.1439 63.1953 13.7689C62.6172 13.1361 61.918 12.8197 61.0977 12.8197C61.0352 12.8197 60.9727 12.8197 60.9102 12.8197C60.8477 12.8197 60.7852 12.8236 60.7227 12.8314V16.1478C60.7227 16.6322 60.8242 16.9642 61.0273 17.1439C61.2383 17.3158 61.7188 17.4017 62.4688 17.4017V18.6908H56.4102V17.4017C57.0898 17.4017 57.5547 17.308 57.8047 17.1205C58.0625 16.933 58.1914 16.6088 58.1914 16.1478V3.45642C58.1914 2.89392 58.1406 2.52673 58.0391 2.35486C57.9453 2.18298 57.6797 2.09704 57.2422 2.09704H56.293V0.807982C57.082 0.807982 57.6992 0.753294 58.1445 0.643919C58.5898 0.526732 58.9063 0.444701 59.0938 0.397826C59.2891 0.343138 59.4922 0.315794 59.7031 0.315794C60.1094 0.315794 60.3789 0.432982 60.5117 0.667357C60.6523 0.901732 60.7227 1.28454 60.7227 1.81579V11.5541H61.3203C62.6094 10.6478 63.7344 9.67517 64.6953 8.63611C64.8516 8.47205 64.9688 8.33142 65.0469 8.21423H63.0195V6.80798H69.4883V8.21423C68.0352 8.2533 66.5469 8.94861 65.0234 10.3002C64.5625 10.6986 64.1016 11.1244 63.6406 11.5775C64.9219 12.0619 65.9609 13.1439 66.7578 14.8236C66.9531 15.2455 67.1328 15.6322 67.2969 15.9838C67.4609 16.3275 67.6211 16.6088 67.7773 16.8275C67.9336 17.0463 68.1094 17.1556 68.3047 17.1556ZM73.8477 23.2142C74.0508 23.2533 74.2188 23.2689 74.3516 23.2611C74.4922 23.2611 74.6563 23.1947 74.8438 23.0619C75.0391 22.9369 75.2266 22.7689 75.4063 22.558C75.7578 22.1595 76.0586 21.6752 76.3086 21.1049C76.5664 20.5345 76.6953 20.0853 76.6953 19.7572C76.6953 19.4291 76.6524 19.1791 76.5664 19.0072C76.4883 18.8353 76.3945 18.6869 76.2852 18.5619C76.1758 18.4291 76.0586 18.3002 75.9336 18.1752C75.8086 18.0502 75.707 17.8822 75.6289 17.6713L72.2305 9.35095C72.0664 8.86658 71.8945 8.53845 71.7149 8.36658C71.5352 8.18689 71.1406 8.09705 70.5313 8.09705V6.80798H76.8359V8.09705C75.9375 8.09705 75.3945 8.17126 75.207 8.3197C75.0195 8.46033 74.9219 8.60876 74.9141 8.76501C74.9063 8.92126 74.9414 9.11658 75.0195 9.35095L77.9375 17.3197L80.9024 9.35095C81.082 8.89783 81.0274 8.57751 80.7383 8.39001C80.4492 8.1947 79.8359 8.09705 78.8984 8.09705V6.80798H84.3594V8.09705C83.8438 8.09705 83.4531 8.20251 83.1875 8.41345C82.9297 8.61658 82.7188 8.92908 82.5547 9.35095L79.4141 17.7299C79.1406 18.347 78.8828 18.9486 78.6406 19.5345C78.3984 20.1205 78.1524 20.6713 77.9024 21.1869C77.3477 22.3353 76.7461 23.2025 76.0977 23.7885C75.4492 24.3744 74.6914 24.6674 73.8242 24.6674C72.9649 24.6674 72.3008 24.4525 71.832 24.0228C71.3633 23.601 71.1289 23.1088 71.1289 22.5463C71.1289 21.9916 71.2852 21.5502 71.5977 21.222C71.9102 20.8939 72.3008 20.7299 72.7695 20.7299C73.4414 20.7299 73.9063 21.0267 74.1641 21.6205C74.2422 21.8002 74.2813 21.9916 74.2813 22.1947C74.2813 22.5853 74.1367 22.9252 73.8477 23.2142ZM93.6289 16.7689C92.6524 18.2064 91.3477 18.9252 89.7149 18.9252C88.5352 18.9252 87.6172 18.5619 86.9609 17.8353C86.3047 17.1088 85.9766 16.0228 85.9766 14.5775V9.71423C85.9766 9.15173 85.9258 8.78455 85.8242 8.61267C85.7305 8.4408 85.4688 8.35486 85.0391 8.35486H84.7344V7.06579C85.4531 7.06579 85.9727 7.01111 86.293 6.90173C86.6211 6.78454 86.8555 6.70251 86.9961 6.65564C87.1367 6.60095 87.3086 6.57361 87.5117 6.57361C87.9102 6.57361 88.1758 6.69861 88.3086 6.94861C88.4414 7.19079 88.5078 7.58142 88.5078 8.12048V14.6595C88.5078 15.5189 88.5977 16.1049 88.7774 16.4174C89.1211 17.0189 89.7109 17.3197 90.5469 17.3197C91.1094 17.3197 91.6641 17.097 92.2109 16.6517C92.7578 16.2064 93.1445 15.6869 93.3711 15.0931V9.71423C93.3555 9.13611 93.3008 8.76501 93.207 8.60095C93.1133 8.43689 92.8516 8.35486 92.4219 8.35486H91.7539V7.06579C92.4961 7.06579 93.0664 7.01111 93.4649 6.90173C93.8711 6.78454 94.1602 6.70251 94.332 6.65564C94.5039 6.60095 94.6914 6.57361 94.8945 6.57361C95.293 6.57361 95.5586 6.69079 95.6914 6.92517C95.832 7.15954 95.9024 7.54236 95.9024 8.07361V15.5736C95.9024 16.3314 95.9375 16.8002 96.0078 16.9799C96.1328 17.3236 96.4453 17.4955 96.9453 17.4955C97.2109 17.4955 97.4375 17.4525 97.625 17.3666V18.5033C97.25 18.7845 96.7383 18.9252 96.0899 18.9252C94.7305 18.9252 93.9102 18.2064 93.6289 16.7689ZM98.75 17.4017C99.4297 17.4017 99.8945 17.308 100.145 17.1205C100.402 16.933 100.531 16.6088 100.531 16.1478V3.45642C100.531 2.89392 100.48 2.52673 100.379 2.35486C100.285 2.18298 100.02 2.09704 99.582 2.09704H98.6328V0.807982C99.4219 0.807982 100.039 0.753294 100.484 0.643919C100.93 0.526732 101.246 0.444701 101.434 0.397826C101.629 0.343138 101.832 0.315794 102.043 0.315794C102.449 0.315794 102.719 0.432982 102.852 0.667357C102.992 0.901732 103.063 1.28454 103.063 1.81579V16.1478C103.063 16.6322 103.164 16.9642 103.367 17.1439C103.578 17.3158 104.063 17.4017 104.82 17.4017V18.6908H98.75V17.4017ZM109.613 4.40564C109.105 4.40564 108.672 4.23767 108.313 3.90173C107.961 3.55798 107.785 3.14001 107.785 2.64783C107.785 2.14783 107.965 1.72595 108.324 1.3822C108.684 1.03064 109.113 0.854857 109.613 0.854857C110.113 0.854857 110.543 1.03064 110.902 1.3822C111.262 1.72595 111.441 2.14783 111.441 2.64783C111.441 3.14001 111.262 3.55798 110.902 3.90173C110.551 4.23767 110.121 4.40564 109.613 4.40564ZM106.625 17.4017C107.352 17.4017 107.805 17.3353 107.984 17.2025C108.172 17.0619 108.285 16.9135 108.324 16.7572C108.363 16.601 108.383 16.4056 108.383 16.1713V9.71423C108.383 9.15173 108.332 8.78455 108.23 8.61267C108.137 8.4408 107.875 8.35486 107.445 8.35486H106.602V7.06579C107.367 7.06579 107.969 7.01111 108.406 6.90173C108.844 6.78454 109.152 6.70251 109.332 6.65564C109.512 6.60095 109.707 6.57361 109.918 6.57361C110.324 6.57361 110.59 6.6947 110.715 6.93689C110.848 7.17126 110.914 7.55017 110.914 8.07361V16.1713C110.914 16.6635 110.992 16.972 111.148 17.097C111.414 17.3002 111.918 17.4017 112.66 17.4017V18.6908H106.625V17.4017ZM121.742 8.33142C120.461 8.33142 119.422 8.72986 118.625 9.52673V16.1713C118.625 16.6556 118.703 16.9603 118.859 17.0853C119.133 17.2963 119.648 17.4017 120.406 17.4017V18.6908H114.453V17.4017C115.125 17.4017 115.547 17.3353 115.719 17.2025C115.891 17.0619 115.996 16.9135 116.035 16.7572C116.074 16.601 116.094 16.4056 116.094 16.1713V9.78455C116.094 9.22205 116.043 8.85486 115.941 8.68298C115.848 8.51111 115.582 8.42517 115.145 8.42517H114.43V7.13611C115.164 7.13611 115.738 7.08142 116.152 6.97204C116.574 6.85486 116.871 6.77283 117.043 6.72595C117.223 6.67126 117.414 6.64392 117.617 6.64392C118.031 6.64392 118.301 6.76501 118.426 7.0072C118.559 7.24158 118.625 7.62048 118.625 8.14392C119.461 7.4408 120.43 6.96423 121.531 6.71423C121.898 6.62829 122.258 6.58533 122.609 6.58533C125.141 6.58533 126.406 8.26111 126.406 11.6127V16.1478C126.406 16.6635 126.48 17.0033 126.629 17.1674C126.777 17.3236 127.184 17.4017 127.848 17.4017V18.6908H122.305V17.4017C123.016 17.4017 123.441 17.3314 123.582 17.1908C123.73 17.0424 123.816 16.89 123.84 16.7338C123.863 16.5775 123.875 16.3822 123.875 16.1478V11.765C123.875 10.6791 123.773 9.93298 123.57 9.52673C123.172 8.72986 122.563 8.33142 121.742 8.33142Z" fill="#004EA2"/>
</svg>
